<svg width="239" height="87" viewBox="0 0 239 87" fill="none" xmlns="http://www.w3.org/2000/svg">
<path d="M49.3327 85.6C47.8127 85.6 46.5327 85.08 45.4927 84.04C44.4527 83 43.9327 81.72 43.9327 80.2V63.88H7.33266C5.41266 63.88 3.77266 63.24 2.41266 61.96C1.05266 60.6 0.372658 58.96 0.372658 57.04V55.96C0.372658 54.28 0.852658 52.84 1.81266 51.64L39.4927 3.52C40.1327 2.63999 40.9727 1.95999 42.0127 1.48C43.1327 0.919998 44.2927 0.639999 45.4927 0.639999H47.8927C49.9727 0.639999 51.6527 1.32 52.9327 2.67999C54.2127 3.96 54.8527 5.6 54.8527 7.6V54.16H63.9727C65.3327 54.16 66.4927 54.64 67.4527 55.6C68.4127 56.56 68.8927 57.72 68.8927 59.08C68.8927 60.44 68.4127 61.6 67.4527 62.56C66.4927 63.44 65.3327 63.88 63.9727 63.88H54.8527V80.2C54.8527 81.72 54.2927 83 53.1727 84.04C52.1327 85.08 50.8527 85.6 49.3327 85.6ZM12.0127 54.16H43.9327V13L12.0127 54.16ZM120.004 86.2C109.444 86.2 101.364 82.32 95.7642 74.56C90.2442 66.8 87.4842 56.32 87.4842 43.12C87.4842 29.92 90.2442 19.44 95.7642 11.68C101.364 3.92 109.444 0.0399995 120.004 0.0399995C130.484 0.0399995 138.524 3.92 144.124 11.68C149.724 19.44 152.524 29.92 152.524 43.12C152.524 56.32 149.724 66.8 144.124 74.56C138.524 82.32 130.484 86.2 120.004 86.2ZM120.004 76.12C126.964 76.12 132.284 73.2 135.964 67.36C139.724 61.52 141.604 53.44 141.604 43.12C141.604 32.88 139.724 24.84 135.964 19C132.284 13.16 126.964 10.24 120.004 10.24C113.044 10.24 107.684 13.16 103.924 19C100.244 24.84 98.4042 32.88 98.4042 43.12C98.4042 53.44 100.244 61.52 103.924 67.36C107.684 73.2 113.044 76.12 120.004 76.12ZM219.236 85.6C217.716 85.6 216.436 85.08 215.396 84.04C214.356 83 213.836 81.72 213.836 80.2V63.88H177.236C175.316 63.88 173.676 63.24 172.316 61.96C170.956 60.6 170.276 58.96 170.276 57.04V55.96C170.276 54.28 170.756 52.84 171.716 51.64L209.396 3.52C210.036 2.63999 210.876 1.95999 211.916 1.48C213.036 0.919998 214.196 0.639999 215.396 0.639999H217.796C219.876 0.639999 221.556 1.32 222.836 2.67999C224.116 3.96 224.756 5.6 224.756 7.6V54.16H233.876C235.236 54.16 236.396 54.64 237.356 55.6C238.316 56.56 238.796 57.72 238.796 59.08C238.796 60.44 238.316 61.6 237.356 62.56C236.396 63.44 235.236 63.88 233.876 63.88H224.756V80.2C224.756 81.72 224.196 83 223.076 84.04C222.036 85.08 220.756 85.6 219.236 85.6ZM181.916 54.16H213.836V13L181.916 54.16Z" fill="#E7E9EE" fill-opacity="0.75"/>
</svg>
